<mxfile host="www.draw.io" modified="2019-10-24T09:03:46.746Z" agent="Mozilla/5.0 (Windows NT 10.0; Win64; x64) AppleWebKit/537.36 (KHTML, like Gecko) Chrome/77.0.3865.90 Safari/537.36" etag="CsQMmTnDcT6PIo2iO3A4" version="12.1.4" type="github" pages="1">
  <diagram id="9crbz9fJ3Gg7VdGXx59i" name="Page-1">
    <mxGraphModel dx="1420" dy="834" grid="1" gridSize="10" guides="1" tooltips="1" connect="1" arrows="1" fold="1" page="1" pageScale="1" pageWidth="827" pageHeight="1169" math="0" shadow="0">
      <root>
        <mxCell id="0"/>
        <mxCell id="1" parent="0"/>
        <mxCell id="lWhZR-5LfOfUeSDtsxpq-1" value="Actor" style="shape=umlActor;verticalLabelPosition=bottom;labelBackgroundColor=#ffffff;verticalAlign=top;html=1;outlineConnect=0;" parent="1" vertex="1">
          <mxGeometry x="50" y="250" width="30" height="60" as="geometry"/>
        </mxCell>
        <mxCell id="lWhZR-5LfOfUeSDtsxpq-2" value="добавить запись" style="ellipse;whiteSpace=wrap;html=1;" parent="1" vertex="1">
          <mxGeometry x="140" y="110" width="120" height="40" as="geometry"/>
        </mxCell>
        <mxCell id="lWhZR-5LfOfUeSDtsxpq-3" value="удалить запись" style="ellipse;whiteSpace=wrap;html=1;" parent="1" vertex="1">
          <mxGeometry x="140" y="340" width="120" height="40" as="geometry"/>
        </mxCell>
        <mxCell id="lWhZR-5LfOfUeSDtsxpq-4" value="просмотр записи за определенный день" style="ellipse;whiteSpace=wrap;html=1;" parent="1" vertex="1">
          <mxGeometry x="140" y="270" width="120" height="60" as="geometry"/>
        </mxCell>
        <mxCell id="lWhZR-5LfOfUeSDtsxpq-5" value="просмотр &quot;состояния дел&quot; за определенный период" style="ellipse;whiteSpace=wrap;html=1;" parent="1" vertex="1">
          <mxGeometry x="140" y="400" width="120" height="70" as="geometry"/>
        </mxCell>
        <mxCell id="lWhZR-5LfOfUeSDtsxpq-6" value="" style="endArrow=none;html=1;entryX=0;entryY=0.5;entryDx=0;entryDy=0;" parent="1" target="lWhZR-5LfOfUeSDtsxpq-2" edge="1">
          <mxGeometry width="50" height="50" relative="1" as="geometry">
            <mxPoint x="90" y="240" as="sourcePoint"/>
            <mxPoint x="140" y="190" as="targetPoint"/>
          </mxGeometry>
        </mxCell>
        <mxCell id="lWhZR-5LfOfUeSDtsxpq-8" value="" style="endArrow=none;html=1;entryX=0;entryY=0.5;entryDx=0;entryDy=0;" parent="1" target="lWhZR-5LfOfUeSDtsxpq-3" edge="1">
          <mxGeometry width="50" height="50" relative="1" as="geometry">
            <mxPoint x="90" y="310" as="sourcePoint"/>
            <mxPoint x="100" y="420" as="targetPoint"/>
          </mxGeometry>
        </mxCell>
        <mxCell id="lWhZR-5LfOfUeSDtsxpq-9" value="" style="endArrow=none;html=1;entryX=0;entryY=0.5;entryDx=0;entryDy=0;" parent="1" target="lWhZR-5LfOfUeSDtsxpq-4" edge="1">
          <mxGeometry width="50" height="50" relative="1" as="geometry">
            <mxPoint x="90" y="290" as="sourcePoint"/>
            <mxPoint x="170" y="230" as="targetPoint"/>
          </mxGeometry>
        </mxCell>
        <mxCell id="lWhZR-5LfOfUeSDtsxpq-10" value="" style="endArrow=none;html=1;entryX=0;entryY=0.5;entryDx=0;entryDy=0;" parent="1" target="lWhZR-5LfOfUeSDtsxpq-5" edge="1">
          <mxGeometry width="50" height="50" relative="1" as="geometry">
            <mxPoint x="90" y="330" as="sourcePoint"/>
            <mxPoint x="170" y="310" as="targetPoint"/>
          </mxGeometry>
        </mxCell>
        <mxCell id="lWhZR-5LfOfUeSDtsxpq-11" value="редактирование записи" style="ellipse;whiteSpace=wrap;html=1;perimeterSpacing=0;" parent="1" vertex="1">
          <mxGeometry x="140" y="190" width="120" height="40" as="geometry"/>
        </mxCell>
        <mxCell id="lWhZR-5LfOfUeSDtsxpq-15" value="include" style="endArrow=open;endSize=6;endFill=0;html=1;dashed=1;startArrow=none;startFill=0;exitX=0.5;exitY=1;exitDx=0;exitDy=0;entryX=0.5;entryY=0;entryDx=0;entryDy=0;" parent="1" source="lWhZR-5LfOfUeSDtsxpq-2" target="lWhZR-5LfOfUeSDtsxpq-11" edge="1">
          <mxGeometry width="160" relative="1" as="geometry">
            <mxPoint x="360" y="70" as="sourcePoint"/>
            <mxPoint x="340" y="170" as="targetPoint"/>
          </mxGeometry>
        </mxCell>
        <mxCell id="lWhZR-5LfOfUeSDtsxpq-16" value="" style="endArrow=none;html=1;entryX=0;entryY=0.5;entryDx=0;entryDy=0;" parent="1" target="lWhZR-5LfOfUeSDtsxpq-11" edge="1">
          <mxGeometry width="50" height="50" relative="1" as="geometry">
            <mxPoint x="90" y="260" as="sourcePoint"/>
            <mxPoint x="100" y="490" as="targetPoint"/>
          </mxGeometry>
        </mxCell>
        <mxCell id="lWhZR-5LfOfUeSDtsxpq-17" value="include" style="endArrow=open;endSize=6;endFill=0;html=1;dashed=1;startArrow=none;startFill=0;exitX=0.5;exitY=0;exitDx=0;exitDy=0;entryX=0.5;entryY=1;entryDx=0;entryDy=0;" parent="1" source="lWhZR-5LfOfUeSDtsxpq-4" target="lWhZR-5LfOfUeSDtsxpq-11" edge="1">
          <mxGeometry width="160" relative="1" as="geometry">
            <mxPoint x="210" y="160" as="sourcePoint"/>
            <mxPoint x="210" y="200" as="targetPoint"/>
          </mxGeometry>
        </mxCell>
      </root>
    </mxGraphModel>
  </diagram>
</mxfile>
